<svg width="57" height="57" viewBox="0 0 57 57" fill="none" xmlns="http://www.w3.org/2000/svg">
<path opacity="0.5" fill-rule="evenodd" clip-rule="evenodd" d="M17.2188 14.8627V15.4375C17.2188 15.9099 17.4064 16.363 17.7405 16.697C18.0745 17.0311 18.5276 17.2188 19 17.2188C19.4724 17.2188 19.9255 17.0311 20.2595 16.697C20.5936 16.363 20.7812 15.9099 20.7812 15.4375V14.8438H36.2188V15.4375C36.2188 15.9099 36.4064 16.363 36.7405 16.697C37.0745 17.0311 37.5276 17.2188 38 17.2188C38.4724 17.2188 38.9255 17.0311 39.2595 16.697C39.5936 16.363 39.7812 15.9099 39.7812 15.4375V14.8627C40.0441 14.8722 40.2832 14.8857 40.4985 14.9031C41.1825 14.9578 41.5079 15.0575 41.7216 15.1668C42.2821 15.4518 42.7358 15.9054 43.0208 16.4659C43.13 16.6796 43.2298 17.005 43.2844 17.6866C43.3414 18.3896 43.3438 19.3016 43.3438 20.6625V21.9688H13.6562V20.6625C13.6562 19.304 13.6563 18.3896 13.7156 17.6866C13.7703 17.005 13.87 16.6796 13.9793 16.4659C14.264 15.9064 14.7189 15.4515 15.2784 15.1668C15.4921 15.0575 15.8175 14.9578 16.4991 14.9031C16.7386 14.8836 16.9786 14.8701 17.2188 14.8627ZM24.9375 16.625C24.4651 16.625 24.012 16.8127 23.678 17.1467C23.3439 17.4808 23.1562 17.9338 23.1562 18.4062C23.1562 18.8787 23.3439 19.3317 23.678 19.6658C24.012 19.9998 24.4651 20.1875 24.9375 20.1875H32.0625C32.5349 20.1875 32.988 19.9998 33.322 19.6658C33.6561 19.3317 33.8438 18.8787 33.8438 18.4062C33.8438 17.9338 33.6561 17.4808 33.322 17.1467C32.988 16.8127 32.5349 16.625 32.0625 16.625H24.9375Z" fill="black"/>
<path d="M20.1875 33.25C20.9749 33.25 21.73 32.9372 22.2867 32.3805C22.8435 31.8237 23.1562 31.0686 23.1562 30.2812C23.1562 29.4939 22.8435 28.7388 22.2867 28.182C21.73 27.6253 20.9749 27.3125 20.1875 27.3125C19.4001 27.3125 18.645 27.6253 18.0883 28.182C17.5315 28.7388 17.2188 29.4939 17.2188 30.2812C17.2188 31.0686 17.5315 31.8237 18.0883 32.3805C18.645 32.9372 19.4001 33.25 20.1875 33.25ZM20.1875 41.5625C20.9749 41.5625 21.73 41.2497 22.2867 40.693C22.8435 40.1362 23.1562 39.3811 23.1562 38.5938C23.1562 37.8064 22.8435 37.0513 22.2867 36.4945C21.73 35.9378 20.9749 35.625 20.1875 35.625C19.4001 35.625 18.645 35.9378 18.0883 36.4945C17.5315 37.0513 17.2188 37.8064 17.2188 38.5938C17.2188 39.3811 17.5315 40.1362 18.0883 40.693C18.645 41.2497 19.4001 41.5625 20.1875 41.5625ZM31.4688 30.2812C31.4688 31.0686 31.156 31.8237 30.5992 32.3805C30.0425 32.9372 29.2874 33.25 28.5 33.25C27.7126 33.25 26.9575 32.9372 26.4008 32.3805C25.844 31.8237 25.5312 31.0686 25.5312 30.2812C25.5312 29.4939 25.844 28.7388 26.4008 28.182C26.9575 27.6253 27.7126 27.3125 28.5 27.3125C29.2874 27.3125 30.0425 27.6253 30.5992 28.182C31.156 28.7388 31.4688 29.4939 31.4688 30.2812ZM28.5 41.5625C29.2874 41.5625 30.0425 41.2497 30.5992 40.693C31.156 40.1362 31.4688 39.3811 31.4688 38.5938C31.4688 37.8064 31.156 37.0513 30.5992 36.4945C30.0425 35.9378 29.2874 35.625 28.5 35.625C27.7126 35.625 26.9575 35.9378 26.4008 36.4945C25.844 37.0513 25.5312 37.8064 25.5312 38.5938C25.5312 39.3811 25.844 40.1362 26.4008 40.693C26.9575 41.2497 27.7126 41.5625 28.5 41.5625ZM39.7812 30.2812C39.7812 31.0686 39.4685 31.8237 38.9117 32.3805C38.355 32.9372 37.5999 33.25 36.8125 33.25C36.0251 33.25 35.27 32.9372 34.7133 32.3805C34.1565 31.8237 33.8438 31.0686 33.8438 30.2812C33.8438 29.4939 34.1565 28.7388 34.7133 28.182C35.27 27.6253 36.0251 27.3125 36.8125 27.3125C37.5999 27.3125 38.355 27.6253 38.9117 28.182C39.4685 28.7388 39.7812 29.4939 39.7812 30.2812Z" fill="black"/>
<path fill-rule="evenodd" clip-rule="evenodd" d="M19 7.71875C19.4724 7.71875 19.9255 7.90642 20.2595 8.24047C20.5936 8.57451 20.7812 9.02758 20.7812 9.5V11.2812H36.2188V9.5C36.2188 9.02758 36.4064 8.57451 36.7405 8.24047C37.0745 7.90642 37.5276 7.71875 38 7.71875C38.4724 7.71875 38.9255 7.90642 39.2595 8.24047C39.5936 8.57451 39.7812 9.02758 39.7812 9.5V11.3002C40.1423 11.3097 40.4787 11.3272 40.7906 11.3525C41.6931 11.4238 42.5386 11.5853 43.339 11.9938C44.5682 12.62 45.5675 13.6193 46.1938 14.8485C46.6023 15.6489 46.7637 16.4944 46.835 17.3969C46.9062 18.2637 46.9062 19.3206 46.9062 20.5913V38.7838C46.9062 40.0544 46.9062 41.1112 46.835 41.9781C46.7637 42.8806 46.6023 43.7261 46.1938 44.5265C45.5682 45.7553 44.5697 46.7546 43.3414 47.3813C42.5386 47.7898 41.6931 47.9512 40.7906 48.0225C39.9237 48.0938 38.8669 48.0938 37.5986 48.0938H19.4038C18.1331 48.0938 17.0762 48.0938 16.2094 48.0225C15.3069 47.9512 14.4614 47.7898 13.661 47.3813C12.4325 46.7563 11.4333 45.7587 10.8063 44.5312C10.3978 43.7285 10.2363 42.883 10.165 41.9805C10.0938 41.1136 10.0938 40.0568 10.0938 38.7885V20.5913C10.0938 19.3206 10.0938 18.2637 10.165 17.3969C10.2363 16.4944 10.3978 15.6489 10.8063 14.8485C11.4325 13.6193 12.4318 12.62 13.661 11.9938C14.4614 11.5853 15.3069 11.4238 16.2094 11.3525C16.5213 11.3272 16.8577 11.3097 17.2188 11.3002V9.5C17.2188 9.26608 17.2648 9.03446 17.3543 8.81835C17.4439 8.60223 17.5751 8.40587 17.7405 8.24047C17.9059 8.07506 18.1022 7.94386 18.3183 7.85434C18.5345 7.76482 18.7661 7.71875 19 7.71875ZM17.2188 15.4375V14.8627C16.9786 14.8701 16.7386 14.8836 16.4991 14.9031C15.8175 14.9578 15.4921 15.0575 15.2784 15.1668C14.7189 15.4515 14.264 15.9064 13.9793 16.4659C13.87 16.6796 13.7703 17.005 13.7156 17.6866C13.6586 18.3896 13.6562 19.3016 13.6562 20.6625V21.9688H43.3438V20.6625C43.3438 19.304 43.3438 18.3896 43.2844 17.6866C43.2298 17.005 43.13 16.6796 43.0208 16.4659C42.736 15.9064 42.2811 15.4515 41.7216 15.1668C41.5079 15.0575 41.1825 14.9578 40.4985 14.9031C40.2598 14.8836 40.0206 14.8702 39.7812 14.8627V15.4375C39.7812 15.9099 39.5936 16.363 39.2595 16.697C38.9255 17.0311 38.4724 17.2188 38 17.2188C37.5276 17.2188 37.0745 17.0311 36.7405 16.697C36.4064 16.363 36.2188 15.9099 36.2188 15.4375V14.8438H20.7812V15.4375C20.7812 15.9099 20.5936 16.363 20.2595 16.697C19.9255 17.0311 19.4724 17.2188 19 17.2188C18.5276 17.2188 18.0745 17.0311 17.7405 16.697C17.4064 16.363 17.2188 15.9099 17.2188 15.4375ZM43.3438 24.3438H13.6562V38.7125C13.6562 40.071 13.6563 40.9854 13.7156 41.686C13.7703 42.37 13.87 42.6954 13.9793 42.9091C14.2643 43.4696 14.7179 43.9233 15.2784 44.2083C15.4921 44.3175 15.8175 44.4173 16.4991 44.4719C17.2021 44.5289 18.1141 44.5312 19.475 44.5312H37.525C38.8835 44.5312 39.7979 44.5312 40.4985 44.4719C41.1825 44.4173 41.5079 44.3175 41.7216 44.2083C42.2811 43.9235 42.736 43.4686 43.0208 42.9091C43.13 42.6954 43.2298 42.37 43.2844 41.686C43.3414 40.9854 43.3438 40.071 43.3438 38.7125V24.3438Z" fill="black"/>
</svg>
